<mxfile host="app.diagrams.net" modified="2023-10-23T13:36:43.985Z" agent="Mozilla/5.0 (Windows NT 10.0; Win64; x64) AppleWebKit/537.36 (KHTML, like Gecko) Chrome/117.0.0.0 Safari/537.36" etag="gHI-4P1qrQ5MVw6CXHKk" version="22.0.6" type="device">
  <diagram name="Page-1" id="4QjYr7BSSaearv5AH33l">
    <mxGraphModel dx="2222" dy="798" grid="1" gridSize="10" guides="1" tooltips="1" connect="1" arrows="1" fold="1" page="1" pageScale="1" pageWidth="850" pageHeight="1100" math="0" shadow="0">
      <root>
        <mxCell id="0" />
        <mxCell id="1" parent="0" />
        <mxCell id="HKFI6yRzDTet03-QNd36-69" value="" style="rounded=1;whiteSpace=wrap;html=1;sketch=1;hachureGap=4;jiggle=2;curveFitting=1;strokeColor=#0F8B8D;fontFamily=Architects Daughter;fontSource=https%3A%2F%2Ffonts.googleapis.com%2Fcss%3Ffamily%3DArchitects%2BDaughter;fontSize=20;fontColor=#143642;fillColor=#FAE5C7;" vertex="1" parent="1">
          <mxGeometry x="-70" y="780" width="1170" height="210" as="geometry" />
        </mxCell>
        <mxCell id="HKFI6yRzDTet03-QNd36-54" value="" style="rounded=1;whiteSpace=wrap;html=1;sketch=1;hachureGap=4;jiggle=2;curveFitting=1;strokeColor=#0F8B8D;fontFamily=Architects Daughter;fontSource=https%3A%2F%2Ffonts.googleapis.com%2Fcss%3Ffamily%3DArchitects%2BDaughter;fontSize=20;fontColor=#143642;fillColor=#FAE5C7;" vertex="1" parent="1">
          <mxGeometry x="-70" y="460" width="1170" height="290" as="geometry" />
        </mxCell>
        <mxCell id="HKFI6yRzDTet03-QNd36-9" value="" style="rounded=1;whiteSpace=wrap;html=1;sketch=1;hachureGap=4;jiggle=2;curveFitting=1;strokeColor=#0F8B8D;fontFamily=Architects Daughter;fontSource=https%3A%2F%2Ffonts.googleapis.com%2Fcss%3Ffamily%3DArchitects%2BDaughter;fontSize=20;fontColor=#143642;fillColor=#FAE5C7;" vertex="1" parent="1">
          <mxGeometry x="-70" y="190" width="1170" height="240" as="geometry" />
        </mxCell>
        <mxCell id="HKFI6yRzDTet03-QNd36-60" style="edgeStyle=orthogonalEdgeStyle;shape=connector;curved=1;rounded=0;sketch=1;jiggle=2;curveFitting=1;orthogonalLoop=1;jettySize=auto;html=1;exitX=0.5;exitY=1;exitDx=0;exitDy=0;entryX=0.5;entryY=0;entryDx=0;entryDy=0;labelBackgroundColor=none;strokeColor=#A8201A;align=center;verticalAlign=middle;fontFamily=Helvetica;fontSize=11;fontColor=default;endArrow=classic;elbow=vertical;" edge="1" parent="1" source="HKFI6yRzDTet03-QNd36-1" target="HKFI6yRzDTet03-QNd36-11">
          <mxGeometry relative="1" as="geometry" />
        </mxCell>
        <mxCell id="HKFI6yRzDTet03-QNd36-1" value="&lt;font data-font-src=&quot;https://fonts.googleapis.com/css?family=Architects+Daughter&quot; face=&quot;Architects Daughter&quot; style=&quot;font-size: 20px;&quot;&gt;Supplier&lt;/font&gt;" style="strokeWidth=2;html=1;shape=mxgraph.lean_mapping.outside_sources;whiteSpace=wrap;align=center;rounded=0;sketch=1;curveFitting=1;jiggle=2;labelBackgroundColor=none;fillColor=#FAE5C7;strokeColor=#0F8B8D;fontColor=#143642;" vertex="1" parent="1">
          <mxGeometry x="30" y="290" width="100" height="70" as="geometry" />
        </mxCell>
        <mxCell id="HKFI6yRzDTet03-QNd36-2" value="&lt;font data-font-src=&quot;https://fonts.googleapis.com/css?family=Architects+Daughter&quot; face=&quot;Architects Daughter&quot; style=&quot;font-size: 20px;&quot;&gt;Customer&lt;/font&gt;" style="strokeWidth=2;html=1;shape=mxgraph.lean_mapping.outside_sources;whiteSpace=wrap;align=center;rounded=0;sketch=1;curveFitting=1;jiggle=2;labelBackgroundColor=none;fillColor=#FAE5C7;strokeColor=#0F8B8D;fontColor=#143642;" vertex="1" parent="1">
          <mxGeometry x="920" y="275" width="100" height="70" as="geometry" />
        </mxCell>
        <mxCell id="HKFI6yRzDTet03-QNd36-5" style="edgeStyle=orthogonalEdgeStyle;rounded=0;orthogonalLoop=1;jettySize=auto;html=1;exitX=0;exitY=0.5;exitDx=0;exitDy=0;entryX=1;entryY=0.5;entryDx=0;entryDy=0;elbow=vertical;curved=1;sketch=1;curveFitting=1;jiggle=2;labelBackgroundColor=none;strokeColor=#A8201A;fontColor=default;" edge="1" parent="1" source="HKFI6yRzDTet03-QNd36-3" target="HKFI6yRzDTet03-QNd36-1">
          <mxGeometry relative="1" as="geometry" />
        </mxCell>
        <mxCell id="HKFI6yRzDTet03-QNd36-6" value="&lt;font data-font-src=&quot;https://fonts.googleapis.com/css?family=Architects+Daughter&quot; face=&quot;Architects Daughter&quot; style=&quot;font-size: 20px;&quot;&gt;Weekly order&lt;/font&gt;" style="edgeLabel;html=1;align=center;verticalAlign=middle;resizable=0;points=[];rounded=0;sketch=1;curveFitting=1;jiggle=2;labelBackgroundColor=none;fontColor=#143642;" vertex="1" connectable="0" parent="HKFI6yRzDTet03-QNd36-5">
          <mxGeometry x="-0.0769" y="9" relative="1" as="geometry">
            <mxPoint x="-34" y="-30" as="offset" />
          </mxGeometry>
        </mxCell>
        <mxCell id="HKFI6yRzDTet03-QNd36-7" style="edgeStyle=orthogonalEdgeStyle;rounded=0;sketch=1;hachureGap=4;jiggle=2;curveFitting=1;orthogonalLoop=1;jettySize=auto;html=1;exitX=1;exitY=0.5;exitDx=0;exitDy=0;entryX=0;entryY=0.75;entryDx=0;entryDy=0;strokeColor=#A8201A;fontFamily=Architects Daughter;fontSource=https%3A%2F%2Ffonts.googleapis.com%2Fcss%3Ffamily%3DArchitects%2BDaughter;fontSize=16;fontColor=#143642;fillColor=#FAE5C7;curved=1;" edge="1" parent="1" source="HKFI6yRzDTet03-QNd36-3" target="HKFI6yRzDTet03-QNd36-2">
          <mxGeometry relative="1" as="geometry" />
        </mxCell>
        <mxCell id="HKFI6yRzDTet03-QNd36-8" value="Monthly order" style="edgeLabel;html=1;align=center;verticalAlign=middle;resizable=0;points=[];fontSize=20;fontFamily=Architects Daughter;fontColor=#143642;" vertex="1" connectable="0" parent="HKFI6yRzDTet03-QNd36-7">
          <mxGeometry x="-0.2" y="-17" relative="1" as="geometry">
            <mxPoint x="55" y="-32" as="offset" />
          </mxGeometry>
        </mxCell>
        <mxCell id="HKFI6yRzDTet03-QNd36-3" value="&lt;font style=&quot;font-size: 18px;&quot; data-font-src=&quot;https://fonts.googleapis.com/css?family=Architects+Daughter&quot; face=&quot;Architects Daughter&quot;&gt;My product&lt;/font&gt;" style="strokeWidth=2;html=1;shape=mxgraph.lean_mapping.manufacturing_process;fontSize=12;verticalAlign=middle;html=1;align=center;whiteSpace=wrap;rounded=0;sketch=1;curveFitting=1;jiggle=2;labelBackgroundColor=none;fillColor=#FAE5C7;strokeColor=#0F8B8D;fontColor=#143642;" vertex="1" parent="1">
          <mxGeometry x="460" y="230" width="140" height="70" as="geometry" />
        </mxCell>
        <mxCell id="HKFI6yRzDTet03-QNd36-4" value="&lt;font data-font-src=&quot;https://fonts.googleapis.com/css?family=Architects+Daughter&quot; face=&quot;Architects Daughter&quot;&gt;Production control&lt;/font&gt;" style="text;fontSize=12;spacingLeft=2;verticalAlign=top;html=1;align=center;spacingTop=-5;resizeWidth=1;whiteSpace=wrap;rounded=0;sketch=1;curveFitting=1;jiggle=2;labelBackgroundColor=none;fontColor=#143642;" vertex="1" parent="HKFI6yRzDTet03-QNd36-3">
          <mxGeometry width="140" height="13" as="geometry" />
        </mxCell>
        <mxCell id="HKFI6yRzDTet03-QNd36-10" value="&lt;font style=&quot;font-size: 24px;&quot;&gt;Information flows&lt;/font&gt;" style="text;html=1;strokeColor=none;fillColor=none;align=center;verticalAlign=middle;whiteSpace=wrap;rounded=0;fontSize=20;fontFamily=Architects Daughter;fontColor=#143642;" vertex="1" parent="1">
          <mxGeometry x="410" y="390" width="240" height="30" as="geometry" />
        </mxCell>
        <mxCell id="HKFI6yRzDTet03-QNd36-11" value="Marketing" style="strokeWidth=2;html=1;shape=mxgraph.lean_mapping.manufacturing_process_shared;spacingTop=-5;align=center;whiteSpace=wrap;verticalAlign=top;sketch=1;hachureGap=4;jiggle=2;curveFitting=1;strokeColor=#0F8B8D;fontFamily=Architects Daughter;fontSource=https%3A%2F%2Ffonts.googleapis.com%2Fcss%3Ffamily%3DArchitects%2BDaughter;fontSize=20;fontColor=#143642;fillColor=#FAE5C7;" vertex="1" parent="1">
          <mxGeometry x="-25" y="570" width="100" height="70" as="geometry" />
        </mxCell>
        <mxCell id="HKFI6yRzDTet03-QNd36-12" value="Research" style="strokeWidth=2;html=1;shape=mxgraph.lean_mapping.manufacturing_process_shared;spacingTop=-5;align=center;whiteSpace=wrap;verticalAlign=top;sketch=1;hachureGap=4;jiggle=2;curveFitting=1;strokeColor=#0F8B8D;fontFamily=Architects Daughter;fontSource=https%3A%2F%2Ffonts.googleapis.com%2Fcss%3Ffamily%3DArchitects%2BDaughter;fontSize=20;fontColor=#143642;fillColor=#FAE5C7;" vertex="1" parent="1">
          <mxGeometry x="195" y="570" width="100" height="70" as="geometry" />
        </mxCell>
        <mxCell id="HKFI6yRzDTet03-QNd36-13" value="Development" style="strokeWidth=2;html=1;shape=mxgraph.lean_mapping.manufacturing_process_shared;spacingTop=-5;align=center;whiteSpace=wrap;verticalAlign=top;sketch=1;hachureGap=4;jiggle=2;curveFitting=1;strokeColor=#0F8B8D;fontFamily=Architects Daughter;fontSource=https%3A%2F%2Ffonts.googleapis.com%2Fcss%3Ffamily%3DArchitects%2BDaughter;fontSize=20;fontColor=#143642;fillColor=#FAE5C7;" vertex="1" parent="1">
          <mxGeometry x="415" y="570" width="140" height="70" as="geometry" />
        </mxCell>
        <mxCell id="HKFI6yRzDTet03-QNd36-14" value="Testing" style="strokeWidth=2;html=1;shape=mxgraph.lean_mapping.manufacturing_process_shared;spacingTop=-5;align=center;whiteSpace=wrap;verticalAlign=top;sketch=1;hachureGap=4;jiggle=2;curveFitting=1;strokeColor=#0F8B8D;fontFamily=Architects Daughter;fontSource=https%3A%2F%2Ffonts.googleapis.com%2Fcss%3Ffamily%3DArchitects%2BDaughter;fontSize=20;fontColor=#143642;fillColor=#FAE5C7;" vertex="1" parent="1">
          <mxGeometry x="675" y="570" width="140" height="70" as="geometry" />
        </mxCell>
        <mxCell id="HKFI6yRzDTet03-QNd36-61" style="edgeStyle=orthogonalEdgeStyle;shape=connector;curved=1;rounded=0;sketch=1;jiggle=2;curveFitting=1;orthogonalLoop=1;jettySize=auto;html=1;exitX=0.5;exitY=0;exitDx=0;exitDy=0;entryX=0.5;entryY=1;entryDx=0;entryDy=0;labelBackgroundColor=none;strokeColor=#A8201A;align=center;verticalAlign=middle;fontFamily=Helvetica;fontSize=11;fontColor=default;endArrow=classic;elbow=vertical;" edge="1" parent="1" source="HKFI6yRzDTet03-QNd36-15" target="HKFI6yRzDTet03-QNd36-2">
          <mxGeometry relative="1" as="geometry" />
        </mxCell>
        <mxCell id="HKFI6yRzDTet03-QNd36-15" value="Deployment" style="strokeWidth=2;html=1;shape=mxgraph.lean_mapping.manufacturing_process_shared;spacingTop=-5;align=center;whiteSpace=wrap;verticalAlign=top;sketch=1;hachureGap=4;jiggle=2;curveFitting=1;strokeColor=#0F8B8D;fontFamily=Architects Daughter;fontSource=https%3A%2F%2Ffonts.googleapis.com%2Fcss%3Ffamily%3DArchitects%2BDaughter;fontSize=20;fontColor=#143642;fillColor=#FAE5C7;" vertex="1" parent="1">
          <mxGeometry x="935" y="570" width="130" height="70" as="geometry" />
        </mxCell>
        <mxCell id="HKFI6yRzDTet03-QNd36-22" value="" style="verticalLabelPosition=bottom;html=1;verticalAlign=top;strokeWidth=2;shape=mxgraph.lean_mapping.operator;hachureGap=4;strokeColor=#b85450;align=center;spacingTop=-5;fontFamily=Architects Daughter;fontSource=https%3A%2F%2Ffonts.googleapis.com%2Fcss%3Ffamily%3DArchitects%2BDaughter;fontSize=20;fillColor=#f8cecc;" vertex="1" parent="1">
          <mxGeometry x="10" y="610" width="30" height="20" as="geometry" />
        </mxCell>
        <mxCell id="HKFI6yRzDTet03-QNd36-29" value="" style="verticalLabelPosition=bottom;html=1;verticalAlign=top;strokeWidth=2;shape=mxgraph.lean_mapping.operator;hachureGap=4;strokeColor=#b85450;align=center;spacingTop=-5;fontFamily=Architects Daughter;fontSource=https%3A%2F%2Ffonts.googleapis.com%2Fcss%3Ffamily%3DArchitects%2BDaughter;fontSize=20;fillColor=#f8cecc;" vertex="1" parent="1">
          <mxGeometry x="230" y="610" width="30" height="20" as="geometry" />
        </mxCell>
        <mxCell id="HKFI6yRzDTet03-QNd36-30" value="" style="verticalLabelPosition=bottom;html=1;verticalAlign=top;strokeWidth=2;shape=mxgraph.lean_mapping.operator;hachureGap=4;strokeColor=#b85450;align=center;spacingTop=-5;fontFamily=Architects Daughter;fontSource=https%3A%2F%2Ffonts.googleapis.com%2Fcss%3Ffamily%3DArchitects%2BDaughter;fontSize=20;fillColor=#f8cecc;" vertex="1" parent="1">
          <mxGeometry x="470" y="610" width="30" height="20" as="geometry" />
        </mxCell>
        <mxCell id="HKFI6yRzDTet03-QNd36-31" value="" style="verticalLabelPosition=bottom;html=1;verticalAlign=top;strokeWidth=2;shape=mxgraph.lean_mapping.operator;hachureGap=4;strokeColor=#b85450;align=center;spacingTop=-5;fontFamily=Architects Daughter;fontSource=https%3A%2F%2Ffonts.googleapis.com%2Fcss%3Ffamily%3DArchitects%2BDaughter;fontSize=20;fillColor=#f8cecc;" vertex="1" parent="1">
          <mxGeometry x="730" y="610" width="30" height="20" as="geometry" />
        </mxCell>
        <mxCell id="HKFI6yRzDTet03-QNd36-32" value="" style="verticalLabelPosition=bottom;html=1;verticalAlign=top;strokeWidth=2;shape=mxgraph.lean_mapping.operator;hachureGap=4;strokeColor=#b85450;align=center;spacingTop=-5;fontFamily=Architects Daughter;fontSource=https%3A%2F%2Ffonts.googleapis.com%2Fcss%3Ffamily%3DArchitects%2BDaughter;fontSize=20;fillColor=#f8cecc;" vertex="1" parent="1">
          <mxGeometry x="985" y="610" width="30" height="20" as="geometry" />
        </mxCell>
        <mxCell id="HKFI6yRzDTet03-QNd36-33" value="" style="verticalLabelPosition=bottom;html=1;verticalAlign=top;strokeWidth=2;shape=mxgraph.lean_mapping.push_arrow;sketch=1;hachureGap=4;jiggle=2;curveFitting=1;strokeColor=#0F8B8D;align=center;spacingTop=-5;fontFamily=Architects Daughter;fontSource=https%3A%2F%2Ffonts.googleapis.com%2Fcss%3Ffamily%3DArchitects%2BDaughter;fontSize=20;fontColor=#143642;fillColor=#FAE5C7;" vertex="1" parent="1">
          <mxGeometry x="75" y="590" width="115" height="30" as="geometry" />
        </mxCell>
        <mxCell id="HKFI6yRzDTet03-QNd36-34" value="" style="verticalLabelPosition=bottom;html=1;verticalAlign=top;strokeWidth=2;shape=mxgraph.lean_mapping.push_arrow;sketch=1;hachureGap=4;jiggle=2;curveFitting=1;strokeColor=#0F8B8D;align=center;spacingTop=-5;fontFamily=Architects Daughter;fontSource=https%3A%2F%2Ffonts.googleapis.com%2Fcss%3Ffamily%3DArchitects%2BDaughter;fontSize=20;fontColor=#143642;fillColor=#FAE5C7;" vertex="1" parent="1">
          <mxGeometry x="295" y="590" width="115" height="30" as="geometry" />
        </mxCell>
        <mxCell id="HKFI6yRzDTet03-QNd36-35" value="" style="verticalLabelPosition=bottom;html=1;verticalAlign=top;strokeWidth=2;shape=mxgraph.lean_mapping.push_arrow;sketch=1;hachureGap=4;jiggle=2;curveFitting=1;strokeColor=#0F8B8D;align=center;spacingTop=-5;fontFamily=Architects Daughter;fontSource=https%3A%2F%2Ffonts.googleapis.com%2Fcss%3Ffamily%3DArchitects%2BDaughter;fontSize=20;fontColor=#143642;fillColor=#FAE5C7;" vertex="1" parent="1">
          <mxGeometry x="555" y="590" width="115" height="30" as="geometry" />
        </mxCell>
        <mxCell id="HKFI6yRzDTet03-QNd36-36" value="" style="verticalLabelPosition=bottom;html=1;verticalAlign=top;strokeWidth=2;shape=mxgraph.lean_mapping.push_arrow;sketch=1;hachureGap=4;jiggle=2;curveFitting=1;strokeColor=#0F8B8D;align=center;spacingTop=-5;fontFamily=Architects Daughter;fontSource=https%3A%2F%2Ffonts.googleapis.com%2Fcss%3Ffamily%3DArchitects%2BDaughter;fontSize=20;fontColor=#143642;fillColor=#FAE5C7;" vertex="1" parent="1">
          <mxGeometry x="815" y="590" width="115" height="30" as="geometry" />
        </mxCell>
        <mxCell id="HKFI6yRzDTet03-QNd36-43" value="" style="verticalLabelPosition=bottom;html=1;verticalAlign=top;strokeWidth=2;shape=mxgraph.lean_mapping.inventory_box;sketch=1;hachureGap=4;jiggle=2;curveFitting=1;strokeColor=#0F8B8D;align=center;spacingTop=-5;fontFamily=Architects Daughter;fontSource=https%3A%2F%2Ffonts.googleapis.com%2Fcss%3Ffamily%3DArchitects%2BDaughter;fontSize=20;fontColor=#143642;fillColor=#FAE5C7;" vertex="1" parent="1">
          <mxGeometry x="95" y="630" width="65" height="60" as="geometry" />
        </mxCell>
        <mxCell id="HKFI6yRzDTet03-QNd36-44" value="&lt;b&gt;1&lt;/b&gt;" style="text;html=1;align=center;verticalAlign=middle;resizable=0;points=[];autosize=1;strokeColor=none;fillColor=none;fontSize=20;fontFamily=Architects Daughter;fontColor=#143642;" vertex="1" parent="1">
          <mxGeometry x="112.5" y="690" width="30" height="40" as="geometry" />
        </mxCell>
        <mxCell id="HKFI6yRzDTet03-QNd36-45" value="" style="verticalLabelPosition=bottom;html=1;verticalAlign=top;strokeWidth=2;shape=mxgraph.lean_mapping.inventory_box;sketch=1;hachureGap=4;jiggle=2;curveFitting=1;strokeColor=#0F8B8D;align=center;spacingTop=-5;fontFamily=Architects Daughter;fontSource=https%3A%2F%2Ffonts.googleapis.com%2Fcss%3Ffamily%3DArchitects%2BDaughter;fontSize=20;fontColor=#143642;fillColor=#FAE5C7;" vertex="1" parent="1">
          <mxGeometry x="320" y="630" width="65" height="60" as="geometry" />
        </mxCell>
        <mxCell id="HKFI6yRzDTet03-QNd36-46" value="&lt;b&gt;20&lt;/b&gt;" style="text;html=1;align=center;verticalAlign=middle;resizable=0;points=[];autosize=1;strokeColor=none;fillColor=none;fontSize=20;fontFamily=Architects Daughter;fontColor=#143642;" vertex="1" parent="1">
          <mxGeometry x="327.5" y="690" width="50" height="40" as="geometry" />
        </mxCell>
        <mxCell id="HKFI6yRzDTet03-QNd36-47" value="" style="verticalLabelPosition=bottom;html=1;verticalAlign=top;strokeWidth=2;shape=mxgraph.lean_mapping.inventory_box;sketch=1;hachureGap=4;jiggle=2;curveFitting=1;strokeColor=#0F8B8D;align=center;spacingTop=-5;fontFamily=Architects Daughter;fontSource=https%3A%2F%2Ffonts.googleapis.com%2Fcss%3Ffamily%3DArchitects%2BDaughter;fontSize=20;fontColor=#143642;fillColor=#FAE5C7;" vertex="1" parent="1">
          <mxGeometry x="570" y="630" width="65" height="60" as="geometry" />
        </mxCell>
        <mxCell id="HKFI6yRzDTet03-QNd36-48" value="&lt;b&gt;40&lt;/b&gt;" style="text;html=1;align=center;verticalAlign=middle;resizable=0;points=[];autosize=1;strokeColor=none;fillColor=none;fontSize=20;fontFamily=Architects Daughter;fontColor=#143642;" vertex="1" parent="1">
          <mxGeometry x="577.5" y="690" width="50" height="40" as="geometry" />
        </mxCell>
        <mxCell id="HKFI6yRzDTet03-QNd36-49" value="" style="verticalLabelPosition=bottom;html=1;verticalAlign=top;strokeWidth=2;shape=mxgraph.lean_mapping.inventory_box;sketch=1;hachureGap=4;jiggle=2;curveFitting=1;strokeColor=#0F8B8D;align=center;spacingTop=-5;fontFamily=Architects Daughter;fontSource=https%3A%2F%2Ffonts.googleapis.com%2Fcss%3Ffamily%3DArchitects%2BDaughter;fontSize=20;fontColor=#143642;fillColor=#FAE5C7;" vertex="1" parent="1">
          <mxGeometry x="840" y="630" width="65" height="60" as="geometry" />
        </mxCell>
        <mxCell id="HKFI6yRzDTet03-QNd36-50" value="&lt;b&gt;40&lt;/b&gt;" style="text;html=1;align=center;verticalAlign=middle;resizable=0;points=[];autosize=1;strokeColor=none;fillColor=none;fontSize=20;fontFamily=Architects Daughter;fontColor=#143642;" vertex="1" parent="1">
          <mxGeometry x="847.5" y="690" width="50" height="40" as="geometry" />
        </mxCell>
        <mxCell id="HKFI6yRzDTet03-QNd36-55" value="&lt;font style=&quot;font-size: 24px;&quot;&gt;Material flows&lt;/font&gt;" style="text;html=1;strokeColor=none;fillColor=none;align=center;verticalAlign=middle;whiteSpace=wrap;rounded=0;fontSize=20;fontFamily=Architects Daughter;fontColor=#143642;" vertex="1" parent="1">
          <mxGeometry x="410" y="460" width="240" height="30" as="geometry" />
        </mxCell>
        <mxCell id="HKFI6yRzDTet03-QNd36-56" value="Monthly" style="verticalLabelPosition=bottom;html=1;verticalAlign=top;strokeWidth=2;shape=mxgraph.lean_mapping.airplane_7;sketch=1;hachureGap=4;jiggle=2;curveFitting=1;strokeColor=#0F8B8D;align=center;spacingTop=-5;fontFamily=Architects Daughter;fontSource=https%3A%2F%2Ffonts.googleapis.com%2Fcss%3Ffamily%3DArchitects%2BDaughter;fontSize=20;fontColor=#143642;fillColor=#FAE5C7;" vertex="1" parent="1">
          <mxGeometry x="42.5" y="488" width="75" height="32" as="geometry" />
        </mxCell>
        <mxCell id="HKFI6yRzDTet03-QNd36-62" value="Weekly" style="verticalLabelPosition=bottom;html=1;verticalAlign=top;strokeWidth=2;shape=mxgraph.lean_mapping.airplane_7;sketch=1;hachureGap=4;jiggle=2;curveFitting=1;strokeColor=#0F8B8D;align=center;spacingTop=-5;fontFamily=Architects Daughter;fontSource=https%3A%2F%2Ffonts.googleapis.com%2Fcss%3Ffamily%3DArchitects%2BDaughter;fontSize=20;fontColor=#143642;fillColor=#FAE5C7;" vertex="1" parent="1">
          <mxGeometry x="905" y="480" width="75" height="32" as="geometry" />
        </mxCell>
        <mxCell id="HKFI6yRzDTet03-QNd36-63" value="" style="verticalLabelPosition=bottom;html=1;verticalAlign=top;strokeWidth=2;shape=mxgraph.lean_mapping.inventory_box;sketch=1;hachureGap=4;jiggle=2;curveFitting=1;strokeColor=#0F8B8D;align=center;spacingTop=-5;fontFamily=Architects Daughter;fontSource=https%3A%2F%2Ffonts.googleapis.com%2Fcss%3Ffamily%3DArchitects%2BDaughter;fontSize=20;fontColor=#143642;fillColor=#FAE5C7;" vertex="1" parent="1">
          <mxGeometry x="-40" y="470" width="65" height="60" as="geometry" />
        </mxCell>
        <mxCell id="HKFI6yRzDTet03-QNd36-64" value="&lt;b&gt;30&lt;/b&gt;" style="text;html=1;align=center;verticalAlign=middle;resizable=0;points=[];autosize=1;strokeColor=none;fillColor=none;fontSize=20;fontFamily=Architects Daughter;fontColor=#143642;" vertex="1" parent="1">
          <mxGeometry x="-32.5" y="530" width="50" height="40" as="geometry" />
        </mxCell>
        <mxCell id="HKFI6yRzDTet03-QNd36-67" value="" style="verticalLabelPosition=bottom;html=1;verticalAlign=top;strokeWidth=2;shape=mxgraph.lean_mapping.inventory_box;sketch=1;hachureGap=4;jiggle=2;curveFitting=1;strokeColor=#0F8B8D;align=center;spacingTop=-5;fontFamily=Architects Daughter;fontSource=https%3A%2F%2Ffonts.googleapis.com%2Fcss%3Ffamily%3DArchitects%2BDaughter;fontSize=20;fontColor=#143642;fillColor=#FAE5C7;" vertex="1" parent="1">
          <mxGeometry x="1010" y="470" width="65" height="60" as="geometry" />
        </mxCell>
        <mxCell id="HKFI6yRzDTet03-QNd36-68" value="&lt;b&gt;1&lt;/b&gt;" style="text;html=1;align=center;verticalAlign=middle;resizable=0;points=[];autosize=1;strokeColor=none;fillColor=none;fontSize=20;fontFamily=Architects Daughter;fontColor=#143642;" vertex="1" parent="1">
          <mxGeometry x="1027.5" y="530" width="30" height="40" as="geometry" />
        </mxCell>
        <mxCell id="HKFI6yRzDTet03-QNd36-70" value="&lt;font style=&quot;font-size: 24px;&quot;&gt;Lead time ladder&lt;/font&gt;" style="text;html=1;strokeColor=none;fillColor=none;align=center;verticalAlign=middle;whiteSpace=wrap;rounded=0;fontSize=20;fontFamily=Architects Daughter;fontColor=#143642;" vertex="1" parent="1">
          <mxGeometry x="410" y="960" width="240" height="30" as="geometry" />
        </mxCell>
        <mxCell id="HKFI6yRzDTet03-QNd36-72" value="" style="verticalLabelPosition=bottom;html=1;verticalAlign=top;strokeWidth=2;shape=mxgraph.lean_mapping.timeline2;dx1=0;dy1=1;dx2=30;dy2=0;dx3=146;dy3=0.775;dx4=263;dy4=0;dx5=400;dy5=0.55;dy6=1;sketch=1;hachureGap=4;jiggle=2;curveFitting=1;strokeColor=#0F8B8D;align=center;spacingTop=-5;fontFamily=Architects Daughter;fontSource=https%3A%2F%2Ffonts.googleapis.com%2Fcss%3Ffamily%3DArchitects%2BDaughter;fontSize=20;fontColor=#143642;fillColor=#FAE5C7;" vertex="1" parent="1">
          <mxGeometry x="-67" y="830" width="400" height="40" as="geometry" />
        </mxCell>
        <mxCell id="HKFI6yRzDTet03-QNd36-73" value="" style="verticalLabelPosition=bottom;html=1;verticalAlign=top;strokeWidth=2;shape=mxgraph.lean_mapping.timeline2;dx1=0;dy1=0.05;dx2=34;dy2=1;dx3=121;dy3=0;dx4=267;dy4=1;dx5=390;dy5=0.325;dy6=0;sketch=1;hachureGap=4;jiggle=2;curveFitting=1;strokeColor=#0F8B8D;align=center;spacingTop=-5;fontFamily=Architects Daughter;fontSource=https%3A%2F%2Ffonts.googleapis.com%2Fcss%3Ffamily%3DArchitects%2BDaughter;fontSize=20;fontColor=#143642;fillColor=#FAE5C7;" vertex="1" parent="1">
          <mxGeometry x="300" y="830" width="400" height="40" as="geometry" />
        </mxCell>
        <mxCell id="HKFI6yRzDTet03-QNd36-76" value="&lt;b&gt;30 days&lt;/b&gt;" style="text;html=1;align=center;verticalAlign=middle;resizable=0;points=[];autosize=1;strokeColor=none;fillColor=none;fontSize=20;fontFamily=Architects Daughter;fontColor=#143642;" vertex="1" parent="1">
          <mxGeometry x="82.5" y="870" width="100" height="40" as="geometry" />
        </mxCell>
        <mxCell id="HKFI6yRzDTet03-QNd36-77" value="" style="verticalLabelPosition=bottom;html=1;verticalAlign=top;strokeWidth=2;shape=mxgraph.lean_mapping.timeline2;dx1=0;dy1=0.05;dx2=130;dy2=0.6;dx3=250;dy3=0.05;dx4=390;dy4=1;dx5=390;dy5=1;dy6=1;sketch=1;hachureGap=4;jiggle=2;curveFitting=1;strokeColor=#0F8B8D;align=center;spacingTop=-5;fontFamily=Architects Daughter;fontSource=https%3A%2F%2Ffonts.googleapis.com%2Fcss%3Ffamily%3DArchitects%2BDaughter;fontSize=20;fontColor=#143642;fillColor=#FAE5C7;" vertex="1" parent="1">
          <mxGeometry x="690" y="830" width="400" height="40" as="geometry" />
        </mxCell>
        <mxCell id="HKFI6yRzDTet03-QNd36-78" value="&lt;b&gt;1 day&lt;/b&gt;" style="text;html=1;align=center;verticalAlign=middle;resizable=0;points=[];autosize=1;strokeColor=none;fillColor=none;fontSize=20;fontFamily=Architects Daughter;fontColor=#143642;" vertex="1" parent="1">
          <mxGeometry x="-17.5" y="790" width="70" height="40" as="geometry" />
        </mxCell>
        <mxCell id="HKFI6yRzDTet03-QNd36-79" value="&lt;b style=&quot;border-color: var(--border-color); color: rgb(20, 54, 66); font-family: &amp;quot;Architects Daughter&amp;quot;; font-size: 20px; font-style: normal; font-variant-ligatures: normal; font-variant-caps: normal; letter-spacing: normal; orphans: 2; text-align: center; text-indent: 0px; text-transform: none; widows: 2; word-spacing: 0px; -webkit-text-stroke-width: 0px; background-color: rgb(251, 251, 251); text-decoration-thickness: initial; text-decoration-style: initial; text-decoration-color: initial;&quot;&gt;5 days&lt;/b&gt;" style="text;whiteSpace=wrap;html=1;fontSize=20;fontFamily=Architects Daughter;fontColor=#143642;" vertex="1" parent="1">
          <mxGeometry x="217.5" y="790" width="110" height="50" as="geometry" />
        </mxCell>
        <mxCell id="HKFI6yRzDTet03-QNd36-80" value="&lt;b style=&quot;border-color: var(--border-color); color: rgb(20, 54, 66); font-family: &amp;quot;Architects Daughter&amp;quot;; font-size: 20px; font-style: normal; font-variant-ligatures: normal; font-variant-caps: normal; letter-spacing: normal; orphans: 2; text-align: center; text-indent: 0px; text-transform: none; widows: 2; word-spacing: 0px; -webkit-text-stroke-width: 0px; background-color: rgb(251, 251, 251); text-decoration-thickness: initial; text-decoration-style: initial; text-decoration-color: initial;&quot;&gt;1 day&lt;/b&gt;" style="text;whiteSpace=wrap;html=1;fontSize=20;fontFamily=Architects Daughter;fontColor=#143642;" vertex="1" parent="1">
          <mxGeometry x="350" y="870" width="110" height="50" as="geometry" />
        </mxCell>
        <mxCell id="HKFI6yRzDTet03-QNd36-81" value="&lt;b style=&quot;border-color: var(--border-color); color: rgb(20, 54, 66); font-family: &amp;quot;Architects Daughter&amp;quot;; font-size: 20px; font-style: normal; font-variant-ligatures: normal; font-variant-caps: normal; letter-spacing: normal; orphans: 2; text-align: center; text-indent: 0px; text-transform: none; widows: 2; word-spacing: 0px; -webkit-text-stroke-width: 0px; background-color: rgb(251, 251, 251); text-decoration-thickness: initial; text-decoration-style: initial; text-decoration-color: initial;&quot;&gt;5 days&lt;/b&gt;" style="text;whiteSpace=wrap;html=1;fontSize=20;fontFamily=Architects Daughter;fontColor=#143642;" vertex="1" parent="1">
          <mxGeometry x="445" y="790" width="110" height="50" as="geometry" />
        </mxCell>
        <mxCell id="HKFI6yRzDTet03-QNd36-82" value="&lt;b style=&quot;border-color: var(--border-color); color: rgb(20, 54, 66); font-family: &amp;quot;Architects Daughter&amp;quot;; font-size: 20px; font-style: normal; font-variant-ligatures: normal; font-variant-caps: normal; letter-spacing: normal; orphans: 2; text-align: center; text-indent: 0px; text-transform: none; widows: 2; word-spacing: 0px; -webkit-text-stroke-width: 0px; background-color: rgb(251, 251, 251); text-decoration-thickness: initial; text-decoration-style: initial; text-decoration-color: initial;&quot;&gt;10 days&lt;/b&gt;" style="text;whiteSpace=wrap;html=1;fontSize=20;fontFamily=Architects Daughter;fontColor=#143642;" vertex="1" parent="1">
          <mxGeometry x="590" y="870" width="110" height="50" as="geometry" />
        </mxCell>
        <mxCell id="HKFI6yRzDTet03-QNd36-83" value="&lt;b style=&quot;border-color: var(--border-color); color: rgb(20, 54, 66); font-family: &amp;quot;Architects Daughter&amp;quot;; font-size: 20px; font-style: normal; font-variant-ligatures: normal; font-variant-caps: normal; letter-spacing: normal; orphans: 2; text-align: center; text-indent: 0px; text-transform: none; widows: 2; word-spacing: 0px; -webkit-text-stroke-width: 0px; background-color: rgb(251, 251, 251); text-decoration-thickness: initial; text-decoration-style: initial; text-decoration-color: initial;&quot;&gt;5 days&lt;/b&gt;" style="text;whiteSpace=wrap;html=1;fontSize=20;fontFamily=Architects Daughter;fontColor=#143642;" vertex="1" parent="1">
          <mxGeometry x="710" y="790" width="110" height="50" as="geometry" />
        </mxCell>
        <mxCell id="HKFI6yRzDTet03-QNd36-84" value="&lt;b style=&quot;border-color: var(--border-color); color: rgb(20, 54, 66); font-family: &amp;quot;Architects Daughter&amp;quot;; font-size: 20px; font-style: normal; font-variant-ligatures: normal; font-variant-caps: normal; letter-spacing: normal; orphans: 2; text-align: center; text-indent: 0px; text-transform: none; widows: 2; word-spacing: 0px; -webkit-text-stroke-width: 0px; background-color: rgb(251, 251, 251); text-decoration-thickness: initial; text-decoration-style: initial; text-decoration-color: initial;&quot;&gt;5 days&lt;/b&gt;" style="text;whiteSpace=wrap;html=1;fontSize=20;fontFamily=Architects Daughter;fontColor=#143642;" vertex="1" parent="1">
          <mxGeometry x="860" y="870" width="110" height="50" as="geometry" />
        </mxCell>
        <mxCell id="HKFI6yRzDTet03-QNd36-85" value="&lt;b style=&quot;border-color: var(--border-color); color: rgb(20, 54, 66); font-family: &amp;quot;Architects Daughter&amp;quot;; font-size: 20px; font-style: normal; font-variant-ligatures: normal; font-variant-caps: normal; letter-spacing: normal; orphans: 2; text-align: center; text-indent: 0px; text-transform: none; widows: 2; word-spacing: 0px; -webkit-text-stroke-width: 0px; background-color: rgb(251, 251, 251); text-decoration-thickness: initial; text-decoration-style: initial; text-decoration-color: initial;&quot;&gt;1 day&lt;/b&gt;" style="text;whiteSpace=wrap;html=1;fontSize=20;fontFamily=Architects Daughter;fontColor=#143642;" vertex="1" parent="1">
          <mxGeometry x="980" y="790" width="110" height="50" as="geometry" />
        </mxCell>
      </root>
    </mxGraphModel>
  </diagram>
</mxfile>
